# xmcd CD database file
#
# Track frame offsets:
#	150
#	11150
#	25097
#	34527
#	46142
#	58197
#	71950
#	82777
#	92595
#	105317
#	115030
#	124755
#
# Disc length: 1799 seconds
#
# Revision: 2
# Processed by: cddbd v1.5.2PL0 Copyright (c) Steve Scherf et al.
# Submitted via: CDex 1.70beta2
#
DISCID=8d07050c
DTITLE=Lynn Morris Band - Lynn Morris Band
DYEAR=1990
DGENRE=Bluegrass
TTITLE0=My Heart Skips A Beat
TTITLE1=You'll Get No More Of Me
TTITLE2=Adams County Breakdown
TTITLE3=Black Pony
TTITLE4=Come Early Morning
TTITLE5=Help Me Climb That Mountain
TTITLE6=Kisses Don't Lie
TTITLE7=Handy Man
TTITLE8=What Was I Supposed To Do
TTITLE9=If Lonely Was The Wind
TTITLE10=Don't Tell Me Stories
TTITLE11=Valley Of Peace
EXTD=YEAR: 1990
EXTT0=
EXTT1=
EXTT2=
EXTT3=
EXTT4=
EXTT5=
EXTT6=
EXTT7=
EXTT8=
EXTT9=
EXTT10=
EXTT11=
PLAYORDER=
